{"title":"Mission.Impossible.Rogue.Nation.2015.HDRip.x264-VYTO [P2PDL]","uid":12490453,"size":506558770,"categoryP":"video","categoryS":"movies","magnet":"?xt=urn:btih:388a8e0bb9c091a1c1e26b053bc36025bbf87ce4&amp;dn=Mission.Impossible.Rogue.Nation.2015.HDRip.x264-VYTO+%5BP2PDL%5D&amp;tr=udp%3A%2F%2Ftracker.leechers-paradise.org%3A6969&amp;tr=udp%3A%2F%2Fzer0day.ch%3A1337&amp;tr=udp%3A%2F%2Fopen.demonii.com%3A1337&amp;tr=udp%3A%2F%2Ftracker.coppersurfer.tk%3A6969&amp;tr=udp%3A%2F%2Fexodus.desync.com%3A6969","seeders":0,"leechers":1,"uploader":"VYTOP2PDL","files":7,"time":1443171672,"description":"____    ____ ____    ____ .___________.  ______   \r\n     /   /      /   / |           | /  __    \r\n    /   /      /   /  `---|  |----`|  |  |  | \r\n        /     _    _/       |  |     |  |  |  | \r\n       /        |  |         |  |     |  `--'  | \r\n    __/         |__|         |__|      ______/  \r\n                                                  \r\nPresenting Small Encodes with quality for years!\r\n                                                                                                   \r\n                                                                                                   \r\n\r\nMission.Impossible.Rogue.Nation.2015.HDRip.480p.x264.AAC-VYTO\r\n\r\n\r\nGenre: Action, Adventure, Thriller \nhttp://www.imdb.com/title/tt2381249/\r\n\r\n\r\nGeneral\r\nFormat                         : MPEG-4\r\nFile size                      : 477 MiB\r\nDuration                       : 2h 11mn\r\nOverall bit rate               : 507 Kbps\r\n\r\nVideo\r\nFormat                         : AVC\r\nDuration                       : 2h 11mn\r\nBit rate                       : 472 Kbps\r\nWidth                          : 720 pixels\r\nHeight                         : 304 pixels\r\nDisplay aspect ratio           : 2.35:1\r\nFrame rate mode                : Constant\r\nFrame rate                     : 25.000 fps\r\nBit depth                      : 8 bits\r\nStream size                    : 444 MiB (93%)\r\nWriting library                : x264 core 148 r2597 \r\n\r\nAudio\r\nFormat                         : AAC\r\nBit rate mode                  : Variable\r\nBit rate                       : 32.0 Kbps\r\nChannel(s)                     : 2 channels \r\nChannel positions              : Front: L R \r\nSampling rate                  : 48.0 KHz\r\nStream size                    : 30.1 MiB (6%)\r\nLanguage                       : English\r\n\r\nSubtitle                       : Yes (English)\r\nSource                         : 720p.HDRip-EVO\r\n\r\nScreenshots:\r\n \nhttp://ititli.com/dn \nhttp://ititli.com/dw \nhttp://ititli.com/d2 \nhttp://ititli.com/d6 \nhttp://ititli.com/d8 \nhttp://ititli.com/de \nhttp://ititli.com/dj \nhttp://ititli.com/dk \nhttp://ititli.com/do \nhttp://ititli.com/dG \nhttp://ititli.com/dH \nhttp://ititli.com/dM\r\n\r\n----------------------------------------------------------------------------------------------------\r\n\r\n\r\nEncoder Notes: Looking For Early Access To Anything You Can Provide DVDScr, R5, DVDR, BluRay, Direct\r\nAudio, Music Releases and Seedboxes. If You Got anything to offer please contact us.\r\n\r\nSupport us by donating BC - 1FgwdzPsd1y25Gea8wP1qni35uGCtmkRCD","torrent":{"xt":"urn:btih:388a8e0bb9c091a1c1e26b053bc36025bbf87ce4","amp;dn":"Mission.Impossible.Rogue.Nation.2015.HDRip.x264-VYTO+%5BP2PDL%5D","amp;tr":["udp%3A%2F%2Ftracker.leechers-paradise.org%3A6969","udp%3A%2F%2Fzer0day.ch%3A1337","udp%3A%2F%2Fopen.demonii.com%3A1337","udp%3A%2F%2Ftracker.coppersurfer.tk%3A6969","udp%3A%2F%2Fexodus.desync.com%3A6969"],"infoHash":"388a8e0bb9c091a1c1e26b053bc36025bbf87ce4","infoHashBuffer":{"type":"Buffer","data":[56,138,142,11,185,192,145,161,193,226,107,5,59,195,96,37,187,248,124,228]},"announce":[],"urlList":[]}}